<svg xmlns="http://www.w3.org/2000/svg" width="2178" height="540" viewBox="0 0 2178 540" fill="none">
<path d="M132 435.042C132.898 435.847 133.668 436.772 134.286 437.785L135.143 439C133.238 438.595 131.381 438.1 129.476 437.606L129.048 435.042L127.714 437.066C125.81 436.496 123.905 435.866 122 435.176L124.429 434.052C125.353 433.525 126.399 433.216 127.476 433.152H129.524L128.762 431.353C127.952 429.554 127.095 427.754 126.143 426C129.947 428.089 133.911 429.908 138 431.443H137.19L130.19 433.467L132 435.042Z" fill="url(#paint0_linear_190_179)"/>
<path d="M116.903 458.294C114.586 457.792 112.175 457.14 110 456.437C111.939 455.12 113.961 453.947 116.052 452.925L117.329 452.323L116.714 451.018C115.91 449.412 115.106 447.756 114.255 446C119.37 448.011 124.638 449.556 130 450.616L122.719 453.677L124.279 455.133C125.083 455.936 125.839 456.738 126.596 457.642C127.352 458.545 128.014 459.247 128.771 460C125.461 459.699 122.151 459.197 118.842 458.545L119.173 453.075L116.903 458.294Z" fill="url(#paint1_linear_190_179)"/>
<path d="M78.1413 439.991C75.6614 438.201 73.2779 436.29 71 434.267C74.1339 434.226 77.2608 433.973 80.3576 433.51H81.7859L80.4561 427.359C80.4561 426.271 79.9636 425.135 79.6681 424C84.0401 428.304 88.8403 432.186 94 435.591C91.5046 436.443 88.9929 437.247 86.4647 438.004L85.2334 438.336L85.4797 439.518C85.9722 441.695 86.5139 443.871 87.1049 446C84.6917 444.581 82.1799 443.114 80.0128 441.553C81.0747 439.794 82.2767 438.118 83.6081 436.538C81.7044 437.565 79.8777 438.719 78.1413 439.991Z" fill="url(#paint2_linear_190_179)"/>
<path d="M74.3 418C76.4018 420.972 77.7545 424.378 78.25 427.945L79 431.421C75.9832 431.807 72.9433 432.001 69.9 432H68.45C67.95 431.517 67.45 431.034 67 430.503C69.3 426.497 71.7 422.055 74.3 418Z" fill="url(#paint3_linear_190_179)"/>
<path d="M90.0323 448.482C89.2581 445.921 88.5806 443.312 88 440.704C90.7742 439.85 93.5323 438.949 96.2742 438C97.4839 438.759 98.7419 439.47 100 440.182C99.3071 440.268 98.6257 440.427 97.9677 440.656C96.984 440.992 96.079 441.517 95.306 442.201C94.5331 442.886 93.908 443.715 93.4677 444.64C92.6513 446.313 92.4961 448.222 93.0323 450L90.0323 448.482Z" fill="url(#paint4_linear_190_179)"/>
<path d="M96.2906 449.567C96.0707 448.945 95.9739 448.284 96.006 447.624C96.0381 446.963 96.1983 446.316 96.4775 445.718C96.7567 445.121 97.1494 444.585 97.6331 444.142C98.1167 443.699 98.6817 443.358 99.2957 443.137H99.8968C101.078 442.852 102.322 443.015 103.394 443.593C104.466 444.172 105.294 445.128 105.722 446.282C106.154 447.539 106.08 448.919 105.518 450.122C104.956 451.325 103.949 452.256 102.717 452.712C102.092 452.934 101.429 453.03 100.768 452.992C100.106 452.954 99.4583 452.785 98.8614 452.493C98.2644 452.2 97.7301 451.792 97.289 451.29C96.8479 450.788 96.5086 450.202 96.2906 449.567Z" fill="url(#paint5_linear_190_179)"/>
<path d="M108.059 445.041L107.465 444L110.485 445.177C111.673 447.123 112.861 449.07 114 451.062C111.78 452.071 109.631 453.205 107.564 454.457C107.291 454.669 106.992 454.851 106.673 455L104 454.14C105.781 453.344 107.178 451.976 107.927 450.298C108.676 448.62 108.723 446.749 108.059 445.041Z" fill="url(#paint6_linear_190_179)"/>
<path d="M77 414.354C77.9001 412.887 78.8477 411.467 79.8426 410C81.5678 412.813 83.708 415.349 86.191 417.524C101.815 431.7 121.186 441.095 142 444.593C141.526 445.681 141.052 446.817 140.626 448C128.265 447.103 116.226 443.649 105.272 437.857C94.3192 432.065 84.6913 424.061 77 414.354Z" fill="url(#paint7_linear_190_179)"/>
<path d="M126 430.678C125.148 430.93 124.321 431.262 123.531 431.669L118.593 434C117.078 433.372 115.547 432.678 114 431.917C114.18 431.946 114.363 431.946 114.543 431.917C115.712 431.493 116.783 430.835 117.692 429.982C118.6 429.13 119.326 428.101 119.827 426.959C120.557 425.416 120.815 423.69 120.568 422L122.543 423.24H122.148C123.561 425.649 124.847 428.132 126 430.678Z" fill="url(#paint8_linear_190_179)"/>
<path d="M115.358 418.157L115.699 418.46C116.779 419.362 117.534 420.614 117.844 422.013C118.154 423.413 118 424.88 117.407 426.178C116.862 427.36 115.994 428.351 114.911 429.03C113.828 429.708 112.577 430.044 111.311 429.995C110.046 429.947 108.822 429.517 107.79 428.758C106.758 427.999 105.964 426.944 105.505 425.724C105.172 424.928 105 424.069 105 423.202C105 422.334 105.172 421.476 105.505 420.679C105.866 419.887 106.375 419.176 107.003 418.587C107.631 417.998 108.365 417.544 109.163 417.249H109.944C110.856 416.986 111.812 416.93 112.747 417.087C113.682 417.244 114.573 417.609 115.358 418.157Z" fill="url(#paint9_linear_190_179)"/>
<path d="M108.848 415.127C107.726 415.551 106.699 416.199 105.828 417.032C104.957 417.866 104.26 418.869 103.778 419.981C102.899 421.858 102.696 423.987 103.204 426L101.53 424.932C100.909 421.68 100.335 418.428 100 415.224C102.152 415.224 104.352 414.739 106.552 414.351H106.791C107.853 414.077 108.949 413.963 110.043 414.011L111 414.884C110.275 414.874 109.552 414.956 108.848 415.127Z" fill="url(#paint10_linear_190_179)"/>
<path d="M105.941 411.617H105.664C103.247 412.082 100.801 412.388 98.3421 412.532H96.9605V413.859C97.2368 416.603 97.6513 419.301 98.1579 422C96.2237 420.628 94.3816 419.21 92.5855 417.746C93.1472 416.555 93.8259 415.421 94.6118 414.362C93.3684 414.973 92.1818 415.693 91.0658 416.511L88.6711 414.407C87.75 413.538 86.8289 412.669 86 411.755C87.287 411.866 88.5814 411.866 89.8684 411.755H96.8224V410.337C96.7524 409.072 96.7524 407.805 96.8224 406.541C96.8224 404.848 96.8224 403.11 96.5 401.326C96.5 400.869 96.5 400.412 96.2697 400C99.6355 403.915 103.218 407.64 107 411.16L105.941 411.617Z" fill="url(#paint11_linear_190_179)"/>
<path d="M91.1084 394C92.5912 396.165 93.4863 398.658 93.7108 401.249C93.7108 402.932 93.7108 404.663 94 406.346C94 407.235 94 408.076 94 408.965H89.6627C88.0373 409.081 86.4038 408.907 84.8434 408.451C84.2065 408.253 83.6327 407.899 83.177 407.424C82.7213 406.949 82.399 406.369 82.241 405.738H82C84.8434 401.716 87.8795 397.741 91.1084 394Z" fill="url(#paint12_linear_190_179)"/>
<path d="M118.133 415.633C109.045 408.541 100.931 400.287 94 391.085C97.2909 387.279 100.725 383.568 104.254 380C105.606 387.476 109.237 394.354 114.651 399.696C122.234 408.207 131.36 415.212 141.55 420.343C145.79 422.61 150.313 424.306 155 425.386C153.295 427.157 151.702 429.032 150.231 431C138.517 428.327 127.551 423.077 118.133 415.633Z" fill="url(#paint13_linear_190_179)"/>
<path d="M62 442.506C63.2247 439.622 64.5436 436.787 65.9096 434C84.5135 452.999 109.678 463.8 136 464.082C135.349 468.028 134.909 472.006 134.681 476C113.722 473.397 93.5507 466.253 75.5188 455.048C70.1882 451.897 65.579 447.621 62 442.506Z" fill="url(#paint14_linear_190_179)"/>
<path d="M143.798 441L141.65 440.613H141.183C139.963 440.133 138.918 439.27 138.195 438.145L137.214 436.645C136.853 436.002 136.447 435.388 136 434.806L138.615 433.983C139.962 433.506 141.355 433.181 142.77 433.016C143.973 432.918 145.169 433.28 146.132 434.032L146.412 433.693L148 434.129C146.474 436.334 145.071 438.628 143.798 441Z" fill="url(#paint15_linear_190_179)"/>
<path d="M365.34 330.899C361.888 335.194 357.937 339.063 353.571 342.425L344.079 349.493C332.405 357.746 315.036 370.743 303.219 378.665L299.518 380.942H299.375C289.808 386.389 279.263 389.903 268.339 391.282C279.353 390.454 290.095 387.456 299.945 382.459C300.35 383.289 300.914 384.03 301.606 384.641C301.291 383.622 301.291 382.531 301.606 381.511C306.192 379.134 310.615 376.456 314.846 373.494L340.425 356.94C319.687 380.657 315.036 384.641 278.162 397.733L276.739 398.255C269.43 400.721 262.075 402.998 254.766 405.655C262.209 404.66 269.58 403.186 276.834 401.243C280.944 403.385 285.487 404.569 290.121 404.706C290.118 406.344 290.708 407.928 291.782 409.165C291.326 407.685 291.463 406.087 292.162 404.706C296.42 404.597 300.613 403.646 304.501 401.907C307.822 400.396 310.999 398.586 313.992 396.5C314.371 398.057 315.138 399.493 316.222 400.674C315.56 398.9 315.56 396.946 316.222 395.172C318.88 393.322 321.443 391.377 323.958 389.48L328.134 386.349C335.028 380.658 343.151 376.647 351.862 374.633C355.754 374.072 359.721 374.364 363.489 375.487C355.892 375.752 348.523 378.152 342.228 382.412C339.36 384.286 336.826 386.627 334.73 389.337C342.323 380.515 359.93 374.159 370.797 379.376C361.716 378.996 352.766 381.649 345.361 386.918C339.038 391.426 333.159 396.525 327.802 402.144L322.154 407.647C315.291 414.86 306.674 420.171 297.145 423.063C286.657 425.482 276.217 422.778 265.112 419.932C259.057 418.205 252.888 416.905 246.651 416.043C237.334 415.296 227.963 415.55 218.699 416.802L174.565 421.165C169.064 421.963 163.484 422.075 157.955 421.497C152.754 420.627 147.734 418.895 143.101 416.375C133.406 411.489 124.727 404.809 117.522 396.69C110.736 389.148 107.652 382.459 108.031 375.866C125.627 359.174 146.135 345.846 168.538 336.544C190.368 327.057 213.906 319.562 237.872 321.744C245.797 322.361 253.675 323.689 261.6 324.922C273.559 326.63 286.23 329.144 298.379 326.914C299.791 326.575 301.185 326.164 302.555 325.681C297.592 328.821 292.035 330.904 286.23 331.8C279.903 333.486 273.185 332.899 267.247 330.14C273.104 333.411 279.935 334.488 286.515 333.176C290.966 332.668 295.335 331.6 299.518 329.998C291.296 336.992 281.16 341.354 270.427 342.52C262.312 343.753 228.428 344.275 226.435 344.133C217.233 343.28 207.972 344.919 199.622 348.876C212.806 347.056 226.203 347.473 239.248 350.11C248.223 351.739 257.319 352.611 266.441 352.718C273.714 352.703 280.928 351.403 287.749 348.876C288.486 350.808 289.636 352.557 291.118 353.999C290.112 352.227 289.527 350.247 289.41 348.212C300.59 343.541 311.247 337.706 321.205 330.804C321.223 332.481 321.699 334.121 322.582 335.547C322.028 333.613 322.179 331.546 323.009 329.713L328.609 326.108C343.469 316.499 359.975 309.713 377.299 306.091C379.983 305.588 382.692 305.224 385.414 305C384.417 305.332 383.421 305.617 382.424 305.996C374.077 308.865 366.11 312.736 358.696 317.523C354.982 319.802 351.624 322.615 348.73 325.871C355.148 320.024 362.599 315.424 370.702 312.305C378.361 309.121 386.307 306.675 394.431 305H395C390.254 307.704 388.166 309.743 381.427 313.301C361.021 324.306 340.567 335.31 320.683 347.216C305.26 356.276 290.691 367.423 272.942 371.36C267.101 372.742 261.065 373.111 255.099 372.451C270.474 374.917 284.711 369.747 298.236 362.964C298.708 364.585 299.517 366.088 300.609 367.375C300.113 365.543 300.113 363.611 300.609 361.778C307.965 357.841 315.083 353.43 322.012 349.54L328.324 346.03C328.582 347.521 329.237 348.914 330.222 350.062C329.731 348.281 329.882 346.383 330.649 344.702C343.984 337.397 357.509 330.472 371.035 323.404C368.994 325.397 367.333 328.717 365.34 330.899Z" fill="url(#paint16_linear_190_179)"/>
<path d="M57.7173 534C49.8149 511.754 51.0911 488.327 55.6068 465.467C57.0302 458.43 60.1224 447 60.1224 447L64 451.156C64 451.156 57.2265 483.274 56.4412 494.893C56.0485 501.41 55.9504 507.976 56.1467 514.493C55.7537 521.034 56.2821 527.596 57.7173 534Z" fill="url(#paint17_linear_190_179)"/>
<path d="M471.984 189.123C469.989 197.458 460.871 202.506 452.133 203.411C441.054 204.137 429.984 201.867 420.078 196.839C410.237 191.859 400.139 187.408 389.827 183.504C375.534 179.071 360.273 178.839 345.852 182.837C346.066 188.8 345.827 194.77 345.14 200.696C343.857 213.099 340.265 225.15 334.55 236.224C331.607 241.948 328.022 247.317 323.865 252.225C319.659 257.964 314.886 263.261 309.618 268.037C312.511 267.617 315.368 266.98 318.166 266.132C324.346 264.125 330.324 261.542 336.022 258.416C326.986 264.991 316.604 269.465 305.629 271.513C302.601 274.088 299.43 276.489 296.131 278.704C294.611 279.704 293.092 280.609 291.382 281.514C313.085 281.902 334.379 275.566 352.358 263.369C333.172 277.668 309.771 285.127 285.873 284.562C284.401 285.276 282.929 285.991 281.409 286.61C280.237 288.537 278.936 290.383 277.515 292.134C290.604 293.66 303.832 293.516 316.884 291.706C338.001 287.577 357.928 278.757 375.201 265.893C386.93 257.702 397.9 248.511 408.823 239.319C387.405 258.083 365.37 277.418 338.254 287.943C324.634 293.27 310.133 295.969 295.514 295.897C288.696 296.063 281.874 295.776 275.093 295.039C273.602 296.716 272.016 298.306 270.344 299.802C266.315 303.529 261.831 306.729 257 309.327C269.3 316.613 284.591 317.708 298.838 316.661C329.848 314.756 361.239 304.945 384.318 284.514C392.012 277.704 398.565 269.846 405.926 262.655C419.128 249.701 434.42 239.176 448.666 227.318C460.539 217.317 472.506 204.506 471.984 189.123Z" fill="url(#paint18_linear_190_179)"/>
<path d="M199.217 138.223C200.107 145.791 202.093 153.19 205.114 160.184C209.013 163.138 212.817 166.187 216.574 169.283C212.6 157.656 210.732 145.411 211.058 133.126C211.79 147.27 215.45 161.108 221.805 173.761H222.042C223.136 172.379 224.135 170.998 225.086 169.569C220.705 151.379 219.961 132.501 222.898 114.023C220.802 131.459 222.077 149.138 226.655 166.091C228.448 163.123 230.037 160.035 231.41 156.849C232.258 154.813 232.988 152.729 233.598 150.609C234.014 152.531 234.554 154.425 235.215 156.278C237.24 161.185 239.575 165.959 242.205 170.569C247.822 152.251 249.634 132.974 247.531 113.927C250.699 133.894 249.58 154.309 244.25 173.809C244.725 174.571 245.201 175.285 245.724 176L248.054 173.904L248.625 173.428C254.98 160.775 258.639 146.937 259.372 132.792C259.697 145.077 257.829 157.322 253.855 168.95C257.612 165.853 261.416 162.804 265.363 159.851C268.347 152.846 270.316 145.451 271.212 137.889C271.221 144.407 270.438 150.902 268.882 157.231C274.747 153.292 280.786 149.323 287 145.321C284.761 130.397 279.623 116.058 271.878 103.113C263.595 90.197 254.036 78.1475 243.346 67.1465C240.515 64.5055 237.922 61.6202 235.595 58.524C235.577 58.3498 235.577 58.1742 235.595 58V58.524C233.271 61.6081 230.695 64.4924 227.892 67.1465C217.107 78.1251 207.467 90.1763 199.122 103.113C191.377 116.058 186.239 130.397 184 145.321C190.34 149.164 196.396 153.245 202.165 157.564C200.401 151.261 199.411 144.766 199.217 138.223Z" fill="url(#paint19_linear_190_179)"/>
<path d="M176.591 267.55C175.199 261.494 174.733 255.263 175.207 249.068C175.207 247.643 175.351 246.218 175.637 244.792C159.131 229.416 148.027 209.162 143.962 187.019C148.512 208.416 159.751 227.826 176.066 242.464C176.957 237.963 178.365 233.579 180.264 229.399C174.598 223.204 169.786 216.286 165.953 208.827C170.048 215.89 175.052 222.39 180.836 228.164C182.877 223.822 185.254 219.644 187.944 215.668C188.278 215.098 188.707 214.576 189.041 214.005C187.239 211.261 185.645 208.386 184.271 205.406C185.835 208.182 187.589 210.849 189.518 213.388C196.182 204.154 203.365 195.303 211.032 186.877C214.037 183.456 217.09 180.083 220 176.615C216.947 173.859 213.751 171.246 210.46 168.823C205.212 164.974 199.679 161.506 194.098 158.18C178.833 149.106 162.805 141.029 149.4 129.674C143.493 125.378 139.343 119.102 137.713 112C132.943 138.178 128.459 164.784 130.51 191.295C132.561 217.806 141.673 244.697 160.467 263.654C166.574 269.816 173.607 274.993 181.313 279C179.452 275.307 177.874 271.479 176.591 267.55Z" fill="url(#paint20_linear_190_179)"/>
<path d="M190.458 294.546C184.006 295.264 177.511 295.533 171.021 295.352C156.826 295.418 142.754 292.73 129.585 287.437C103.32 276.821 82.1749 257.722 61.2199 239.048C71.8396 248.195 82.4594 257.342 93.8377 265.494C110.456 278.245 129.769 287.031 150.303 291.181C162.872 292.977 175.62 293.136 188.23 291.655C186.461 289.201 184.877 286.619 183.489 283.93C159.154 285.294 135.14 277.858 115.836 262.982C134.164 275.846 156.295 282.158 178.653 280.897C173.633 278.288 168.87 275.21 164.431 271.703L164.051 271.418C152.214 269.936 140.987 265.322 131.528 258.053C137.021 261.161 142.8 263.732 148.785 265.731C152.416 266.898 156.171 267.63 159.974 267.911C156.354 264.687 153.008 261.168 149.971 257.39C133.752 236.483 125.365 210.561 126.266 184.119C111.18 178.846 94.7869 178.63 79.5674 183.503C69.567 187.391 59.7861 191.821 50.2683 196.773C40.716 201.709 29.9892 203.923 19.2624 203.171C10.7761 202.176 2.00529 197.152 0.0140918 188.953C-0.460004 204.214 11.1079 216.963 22.7233 226.868C36.4721 238.669 51.4061 249.143 64.2067 262.034C71.3181 269.523 77.671 277.106 85.1143 283.741C107.349 304.073 137.739 313.836 167.797 315.731C181.64 316.584 196.242 315.731 208 308.338C201.211 305.083 195.222 300.375 190.458 294.546Z" fill="url(#paint21_linear_190_179)"/>
<path d="M335.843 111C330.492 122.352 319.269 130.08 308.519 136.662C291.425 146.174 275.015 156.885 259.412 168.715C255.408 171.985 251.597 175.489 248 179.209C251.694 184.79 256.429 190.085 260.691 195.236C265.853 201.246 271.109 207.208 275.987 213.457C279.193 217.576 281.911 222.058 284.084 226.813L285.173 225.859L284.132 226.86L285.6 230.295C286.929 233.724 288.006 237.247 288.82 240.836C295.41 235.146 301.365 228.748 306.578 221.756C301.515 229.114 295.637 235.867 289.056 241.885C289.906 246.031 290.381 250.246 290.477 254.478C297.937 248.617 304.734 241.946 310.745 234.587C317.717 226.084 322.919 216.253 326.04 205.682C323.187 216.383 318.245 226.405 311.503 235.16C305.317 243.131 298.265 250.379 290.477 256.767C290.389 260.727 289.946 264.67 289.151 268.549C288.154 273.219 286.563 277.74 284.416 282C286.973 280.712 289.483 279.281 291.945 277.755C309.801 266.285 324.171 250.077 333.475 230.915C338.025 222.053 341.218 212.549 342.946 202.725C347.729 172.388 334.612 141.766 335.843 111Z" fill="url(#paint22_linear_190_179)"/>
<path d="M281.809 230.941C275.334 218.906 267.369 207.737 258.103 197.7C240.37 176.805 238.095 173.956 232.5 158C226.858 173.908 224.63 176.995 206.897 197.7C197.633 207.739 189.668 218.907 183.191 230.941C170.295 257.392 182.669 289.351 206.613 304.215C202.994 296.289 200.489 287.899 199.169 279.284C201.582 288.904 205.52 298.075 210.832 306.447L214.057 308.014L217.66 309.438C211.65 295.889 209.108 281.053 210.264 266.272C210.072 281.862 214.032 297.221 221.737 310.768C223.112 311.195 224.487 311.528 225.862 311.86C220.027 290.328 218.767 267.808 222.164 245.757C219.844 268.29 222.382 291.06 229.608 312.525L232.642 313L235.629 312.525C242.876 291.048 245.431 268.262 243.12 245.71C246.478 267.765 245.202 290.28 239.375 311.813C240.797 311.48 242.172 311.148 243.5 310.721C251.226 297.182 255.188 281.817 254.974 266.225C256.153 281.007 253.61 295.849 247.577 309.391L251.181 307.966L254.405 306.399C259.725 298.037 263.693 288.886 266.163 279.284C264.736 287.915 262.119 296.305 258.387 304.215C282.331 289.351 294.705 257.392 281.809 230.941Z" fill="url(#paint23_linear_190_179)"/>
<path d="M231.78 9.07308C231.773 8.40269 231.994 7.75014 232.407 7.22327C232.819 6.6964 233.398 6.32675 234.047 6.1754C234.701 6.3186 235.285 6.68607 235.699 7.21478C236.112 7.74349 236.33 8.40049 236.315 9.07308C236.345 9.67277 236.169 10.2647 235.816 10.7492C235.464 11.2337 234.956 11.5812 234.378 11.7332H233.575C233.014 11.5698 232.528 11.2145 232.2 10.7288C231.872 10.243 231.723 9.65738 231.78 9.07308ZM232.772 19.5238C232.781 19.7772 232.865 20.0221 233.013 20.2275C233.161 20.4329 233.366 20.5896 233.603 20.6779C233.839 20.7661 234.096 20.7818 234.342 20.7232C234.587 20.6645 234.809 20.534 234.981 20.3481C235.153 20.1623 235.266 19.9295 235.306 19.6791C235.346 19.4287 235.311 19.172 235.206 18.9415C235.101 18.7109 234.931 18.5168 234.716 18.3837C234.501 18.2506 234.252 18.1845 234 18.1937C233.666 18.2177 233.353 18.3684 233.125 18.6153C232.897 18.8622 232.771 19.1869 232.772 19.5238ZM224.079 22.1839C221.858 22.1839 221.433 19.6663 221.433 19.6663C221.433 19.6663 221.858 17.1961 224.079 17.1486C224.709 17.179 225.308 17.4352 225.767 17.8707C226.227 18.3063 226.516 18.8926 226.583 19.5238V19.9513C226.507 20.5536 226.225 21.1107 225.786 21.5268C225.346 21.9429 224.776 22.192 224.173 22.2314L224.079 22.1839ZM241.512 19.9038V19.5713C241.512 19.1437 242.031 17.1486 244.016 17.1961C246 17.2436 246.661 19.6663 246.661 19.6663C246.661 19.6663 246.236 22.1364 244.016 22.1839C242.079 22.1839 241.843 20.1888 241.512 19.7138V19.9038ZM230.976 19.6663C230.957 19.242 231.022 18.8181 231.166 18.4188C231.31 18.0196 231.531 17.6528 231.816 17.3395C232.101 17.0263 232.445 16.7726 232.828 16.5931C233.211 16.4137 233.625 16.3119 234.047 16.2935C234.937 16.2935 235.79 16.6489 236.419 17.2814C237.048 17.9139 237.402 18.7718 237.402 19.6663C237.402 20.5608 237.048 21.4186 236.419 22.0511C235.79 22.6836 234.937 23.039 234.047 23.039C233.608 23.0219 233.177 22.9143 232.781 22.723C232.385 22.5317 232.032 22.2607 231.744 21.9268C231.456 21.5928 231.239 21.203 231.107 20.7815C230.975 20.36 230.931 19.9158 230.976 19.4762V19.6663ZM229.228 19.6663C229.32 20.5799 229.672 21.4474 230.244 22.1636C230.815 22.8799 231.581 23.4143 232.448 23.7021C233.315 23.9899 234.247 24.0188 235.13 23.7854C236.014 23.5519 236.811 23.066 237.425 22.3866C238.039 21.7071 238.444 20.8632 238.592 19.957C238.739 19.0507 238.622 18.121 238.254 17.2803C237.887 16.4396 237.285 15.724 236.522 15.2201C235.758 14.7162 234.866 14.4455 233.953 14.4409C232.678 14.5249 231.483 15.0908 230.606 16.0249C229.73 16.959 229.238 18.1921 229.228 19.4762V19.6663ZM227.622 19.6663C227.687 18.4047 228.118 17.1899 228.862 16.1721C229.606 15.1543 230.631 14.3783 231.809 13.9399C232.987 13.5015 234.267 13.42 235.491 13.7056C236.715 13.9912 237.829 14.6312 238.695 15.5466C239.56 16.462 240.14 17.6124 240.363 18.8557C240.585 20.099 240.44 21.3806 239.945 22.5418C239.451 23.703 238.628 24.693 237.58 25.3893C236.532 26.0855 235.304 26.4575 234.047 26.4592C233.178 26.4286 232.324 26.226 231.533 25.8632C230.743 25.5003 230.031 24.9843 229.438 24.3446C228.846 23.7049 228.385 22.954 228.081 22.135C227.778 21.3159 227.638 20.4447 227.669 19.5713L227.622 19.6663ZM231.685 30.2594C231.664 29.6209 231.871 28.996 232.27 28.4988C232.669 28.0016 233.233 27.6655 233.858 27.5518H234.236C234.848 27.6842 235.396 28.0269 235.784 28.5211C236.172 29.0153 236.376 29.63 236.362 30.2594C236.366 30.9364 236.138 31.5941 235.717 32.1218C235.295 32.6496 234.706 33.0152 234.047 33.1571C233.364 33.022 232.751 32.6466 232.318 32.0982C231.885 31.5497 231.661 30.8642 231.685 30.1644V30.2594ZM234.094 0.190012C233.464 1.64225 232.548 2.95115 231.402 4.03776C229.465 5.89038 227.575 7.03045 228.331 9.64312C228.67 10.8531 229.322 11.9511 230.22 12.8258L229.654 13.2534C229.71 13.0213 229.709 12.779 229.652 12.5473C229.594 12.3155 229.481 12.1014 229.323 11.9233C228.472 10.8307 226.299 11.0207 226.157 11.0207C226.157 11.0207 225.921 13.4434 226.961 14.4409C227.119 14.5996 227.315 14.7138 227.531 14.7721C227.746 14.8305 227.973 14.8309 228.189 14.7734C228.047 14.9521 227.92 15.1428 227.811 15.3435C226.979 14.3426 225.906 13.5737 224.693 13.1108C222.283 12.3033 221.197 14.3459 219.496 16.4836C218.541 17.6932 217.352 18.6952 216 19.4287C217.352 20.1622 218.541 21.1642 219.496 22.3739C221.197 24.5116 222.283 26.5542 224.693 25.7466C225.855 25.2849 226.891 24.5522 227.717 23.609C227.701 23.7193 227.701 23.8312 227.717 23.9415C227.408 23.988 227.125 24.1388 226.913 24.3691C225.827 25.3191 226.016 27.7418 226.063 27.8843C226.063 27.8843 228.378 28.1693 229.323 26.9817C229.537 26.712 229.654 26.3769 229.654 26.0317L230.031 26.2692C229.107 27.1771 228.425 28.3042 228.047 29.5469C227.291 32.1596 229.181 33.2996 231.165 35.1998C232.301 36.2774 233.216 37.5685 233.858 39C234.5 37.5685 235.415 36.2774 236.551 35.1998C238.535 33.2996 240.425 32.1596 239.669 29.5469C239.274 28.323 238.612 27.2032 237.732 26.2692L238.157 26.0317C238.137 26.2267 238.156 26.4239 238.213 26.6115C238.27 26.7991 238.363 26.9734 238.488 27.1242C239.386 28.2643 241.606 28.0743 241.748 28.0268C241.748 28.0268 241.748 25.5091 240.898 24.5116C240.777 24.38 240.631 24.2744 240.469 24.2009C240.306 24.1275 240.131 24.0877 239.953 24.084L240.236 23.6565C241.056 24.6381 242.114 25.3907 243.307 25.8417C245.669 26.6492 246.756 24.6066 248.457 22.4689C249.435 21.2642 250.639 20.2637 252 19.5238C250.639 18.7838 249.435 17.7833 248.457 16.5786C246.756 14.4409 245.669 12.3983 243.307 13.2058C242.088 13.6569 241.012 14.4278 240.189 15.4385L239.906 14.9635C240.089 14.9863 240.276 14.9637 240.449 14.8974C240.621 14.8312 240.776 14.7234 240.898 14.5834C241.89 13.6334 241.701 11.2582 241.701 11.1157C241.701 11.1157 239.48 10.8307 238.63 12.0183C238.364 12.3544 238.229 12.7768 238.252 13.2058L238.016 12.6833C238.907 11.7846 239.557 10.6732 239.906 9.4531C240.661 6.84044 238.772 5.70037 236.835 3.84775C235.688 2.76114 234.772 1.45224 234.142 0L234.094 0.190012Z" fill="url(#paint24_linear_190_179)"/>
<path d="M604.25 270.25C589.25 270.25 575.667 268.5 563.5 265C551.5 261.5 541.083 256.25 532.25 249.25C523.583 242.25 516.917 233.583 512.25 223.25C507.583 212.917 505.25 201 505.25 187.5C505.25 173.833 507.667 161.75 512.5 151.25C517.5 140.583 524.5 131.583 533.5 124.25C542.667 116.917 553.5 111.417 566 107.75C578.667 103.917 592.667 102 608 102C626.167 102 641.833 104.583 655 109.75C668.167 114.75 678.5 121.833 686 131C693.667 140.167 698 151.083 699 163.75H667C664.833 157.083 661.25 151.333 656.25 146.5C651.417 141.5 645 137.667 637 135C629 132.167 619.333 130.75 608 130.75C593.5 130.75 581.083 133.083 570.75 137.75C560.583 142.417 552.833 149 547.5 157.5C542.167 166 539.5 176 539.5 187.5C539.5 198.667 541.833 208.333 546.5 216.5C551.167 224.5 558.333 230.667 568 235C577.833 239.333 590.333 241.5 605.5 241.5C617.167 241.5 627.417 240 636.25 237C645.25 233.833 652.75 229.667 658.75 224.5C664.75 219.167 669 213.25 671.5 206.75L684.5 202C682.333 223.5 674.167 240.25 660 252.25C646 264.25 627.417 270.25 604.25 270.25ZM676 267C676 261.833 676.333 255.917 677 249.25C677.667 242.417 678.5 235.583 679.5 228.75C680.5 221.75 681.417 215.333 682.25 209.5H608.25V188.25H704.75V267H676ZM808.766 270C793.099 270 779.266 267.5 767.266 262.5C755.432 257.5 746.182 250.25 739.516 240.75C732.849 231.083 729.516 219.25 729.516 205.25C729.516 191.25 732.849 179.417 739.516 169.75C746.182 159.917 755.432 152.5 767.266 147.5C779.266 142.5 793.099 140 808.766 140C824.432 140 838.099 142.5 849.766 147.5C861.599 152.5 870.849 159.917 877.516 169.75C884.182 179.417 887.516 191.25 887.516 205.25C887.516 219.25 884.182 231.083 877.516 240.75C870.849 250.25 861.599 257.5 849.766 262.5C838.099 267.5 824.432 270 808.766 270ZM808.766 245C817.432 245 825.182 243.5 832.016 240.5C839.016 237.333 844.516 232.833 848.516 227C852.516 221 854.516 213.75 854.516 205.25C854.516 196.75 852.516 189.5 848.516 183.5C844.516 177.333 839.099 172.667 832.266 169.5C825.432 166.333 817.599 164.75 808.766 164.75C800.099 164.75 792.266 166.333 785.266 169.5C778.266 172.667 772.682 177.25 768.516 183.25C764.516 189.25 762.516 196.583 762.516 205.25C762.516 213.75 764.516 221 768.516 227C772.516 232.833 778.016 237.333 785.016 240.5C792.016 243.5 799.932 245 808.766 245ZM911.541 142.75H944.041V267H911.541V142.75ZM991.791 169.5C982.458 169.5 974.374 171.333 967.541 175C960.708 178.5 955.208 182.833 951.041 188C946.874 193.167 943.958 198.167 942.291 203L942.041 189.25C942.208 187.25 942.874 184.333 944.041 180.5C945.208 176.5 946.958 172.25 949.291 167.75C951.624 163.083 954.708 158.667 958.541 154.5C962.374 150.167 967.041 146.667 972.541 144C978.041 141.333 984.458 140 991.791 140V169.5ZM1107.63 269.75C1096.63 269.75 1087.22 267.833 1079.38 264C1071.55 260 1065.22 254.833 1060.38 248.5C1055.55 242 1051.97 235 1049.63 227.5C1047.3 219.833 1046.13 212.333 1046.13 205C1046.13 195.833 1047.22 187.333 1049.38 179.5C1051.72 171.667 1055.3 164.833 1060.13 159C1064.97 153 1071.3 148.333 1079.13 145C1086.97 141.667 1096.47 140 1107.63 140C1120.47 140 1131.8 142.75 1141.63 148.25C1151.63 153.583 1159.47 161.083 1165.13 170.75C1170.97 180.417 1173.88 191.833 1173.88 205C1173.88 217.833 1170.97 229.167 1165.13 239C1159.3 248.667 1151.38 256.25 1141.38 261.75C1131.38 267.083 1120.13 269.75 1107.63 269.75ZM1097.13 244.75C1105.97 244.75 1113.63 243.083 1120.13 239.75C1126.63 236.417 1131.63 231.833 1135.13 226C1138.8 220 1140.63 213 1140.63 205C1140.63 193 1136.8 183.333 1129.13 176C1121.63 168.667 1110.97 165 1097.13 165C1087.47 165 1079.05 166.583 1071.88 169.75C1064.72 172.917 1059.13 177.5 1055.13 183.5C1051.3 189.333 1049.38 196.5 1049.38 205C1049.38 212.833 1051.3 219.75 1055.13 225.75C1058.97 231.75 1064.47 236.417 1071.63 239.75C1078.8 243.083 1087.3 244.75 1097.13 244.75ZM1049.38 92.75V235C1049.38 240.333 1049.13 246.083 1048.63 252.25C1048.13 258.25 1047.63 263.167 1047.13 267H1016.88V92.75H1049.38ZM1341.67 267H1309.17V142.75H1341.67V267ZM1310.92 207.25L1311.17 215.75C1310.83 218.083 1310 221.5 1308.67 226C1307.33 230.333 1305.25 235 1302.42 240C1299.75 245 1296.25 249.833 1291.92 254.5C1287.58 259 1282.25 262.75 1275.92 265.75C1269.58 268.583 1262.08 270 1253.42 270C1246.58 270 1239.83 269.167 1233.17 267.5C1226.67 265.833 1220.75 263.083 1215.42 259.25C1210.08 255.25 1205.83 249.917 1202.67 243.25C1199.5 236.583 1197.92 228.167 1197.92 218V142.75H1230.42V212.5C1230.42 220.5 1231.67 226.833 1234.17 231.5C1236.83 236 1240.67 239.167 1245.67 241C1250.67 242.833 1256.58 243.75 1263.42 243.75C1272.42 243.75 1280.17 241.833 1286.67 238C1293.17 234 1298.42 229.167 1302.42 223.5C1306.58 217.833 1309.42 212.417 1310.92 207.25ZM1431.76 269.75C1419.42 269.75 1408.17 267.083 1398.01 261.75C1388.01 256.25 1380.01 248.667 1374.01 239C1368.17 229.167 1365.26 217.833 1365.26 205C1365.26 191.833 1368.26 180.417 1374.26 170.75C1380.26 161.083 1388.34 153.583 1398.51 148.25C1408.84 142.75 1420.51 140 1433.51 140C1447.84 140 1459.34 142.917 1468.01 148.75C1476.84 154.417 1483.26 162.167 1487.26 172C1491.26 181.833 1493.26 192.833 1493.26 205C1493.26 212.333 1492.09 219.833 1489.76 227.5C1487.42 235 1483.84 242 1479.01 248.5C1474.17 254.833 1467.84 260 1460.01 264C1452.17 267.833 1442.76 269.75 1431.76 269.75ZM1442.26 244.75C1452.09 244.75 1460.59 243.083 1467.76 239.75C1474.92 236.417 1480.42 231.75 1484.26 225.75C1488.09 219.75 1490.01 212.833 1490.01 205C1490.01 196.5 1488.01 189.333 1484.01 183.5C1480.17 177.5 1474.67 173 1467.51 170C1460.51 166.833 1452.09 165.25 1442.26 165.25C1428.42 165.25 1417.67 168.917 1410.01 176.25C1402.34 183.417 1398.51 193 1398.51 205C1398.51 213 1400.34 220 1404.01 226C1407.67 231.833 1412.76 236.417 1419.26 239.75C1425.92 243.083 1433.59 244.75 1442.26 244.75ZM1490.01 142.75H1522.51V267H1492.26C1492.26 267 1492.01 265.417 1491.51 262.25C1491.17 258.917 1490.84 254.75 1490.51 249.75C1490.17 244.75 1490.01 239.833 1490.01 235V142.75ZM1592.21 105.25H1762.71V133H1592.21V105.25ZM1660.96 129.5H1694.21V267H1660.96V129.5ZM1883.2 267V198.75C1883.2 191.917 1882.03 186.25 1879.7 181.75C1877.36 177.25 1873.61 173.833 1868.45 171.5C1863.45 169.167 1856.7 168 1848.2 168C1840.03 168 1832.61 169.583 1825.95 172.75C1819.28 175.75 1813.86 179.75 1809.7 184.75C1805.53 189.583 1803.2 194.75 1802.7 200.25L1802.45 186.5C1803.28 181 1805.2 175.5 1808.2 170C1811.2 164.5 1815.2 159.5 1820.2 155C1825.2 150.5 1831.2 146.917 1838.2 144.25C1845.36 141.417 1853.36 140 1862.2 140C1869.86 140 1876.95 141 1883.45 143C1889.95 144.833 1895.61 147.75 1900.45 151.75C1905.28 155.75 1909.03 160.75 1911.7 166.75C1914.36 172.583 1915.7 179.5 1915.7 187.5V267H1883.2ZM1771.95 267V92.75H1804.45V267H1771.95ZM2005.73 269.75C1993.4 269.75 1982.15 267.083 1971.98 261.75C1961.98 256.25 1953.98 248.667 1947.98 239C1942.15 229.167 1939.23 217.833 1939.23 205C1939.23 191.833 1942.23 180.417 1948.23 170.75C1954.23 161.083 1962.32 153.583 1972.48 148.25C1982.82 142.75 1994.48 140 2007.48 140C2021.82 140 2033.32 142.917 2041.98 148.75C2050.82 154.417 2057.23 162.167 2061.23 172C2065.23 181.833 2067.23 192.833 2067.23 205C2067.23 212.333 2066.07 219.833 2063.73 227.5C2061.4 235 2057.82 242 2052.98 248.5C2048.15 254.833 2041.82 260 2033.98 264C2026.15 267.833 2016.73 269.75 2005.73 269.75ZM2016.23 244.75C2026.07 244.75 2034.57 243.083 2041.73 239.75C2048.9 236.417 2054.4 231.75 2058.23 225.75C2062.07 219.75 2063.98 212.833 2063.98 205C2063.98 196.5 2061.98 189.333 2057.98 183.5C2054.15 177.5 2048.65 173 2041.48 170C2034.48 166.833 2026.07 165.25 2016.23 165.25C2002.4 165.25 1991.65 168.917 1983.98 176.25C1976.32 183.417 1972.48 193 1972.48 205C1972.48 213 1974.32 220 1977.98 226C1981.65 231.833 1986.73 236.417 1993.23 239.75C1999.9 243.083 2007.57 244.75 2016.23 244.75ZM2063.98 142.75H2096.48V267H2066.23C2066.23 267 2065.98 265.417 2065.48 262.25C2065.15 258.917 2064.82 254.75 2064.48 249.75C2064.15 244.75 2063.98 239.833 2063.98 235V142.75ZM2163.15 88.25V116.75H2125.4V88.25H2163.15ZM2127.9 142.75H2160.4V267H2127.9V142.75Z" fill="#ffffff"/>
<path d="M637 454.5H621.25L714.25 309.25H747.5V471H714.25V353.5L722.25 355.75L648 471H610.75L536.5 356.25L544.5 354V471H511.25V309.25H544.5L637 454.5ZM842.158 473.75C829.825 473.75 818.575 471.083 808.408 465.75C798.408 460.25 790.408 452.667 784.408 443C778.575 433.167 775.658 421.833 775.658 409C775.658 395.833 778.658 384.417 784.658 374.75C790.658 365.083 798.742 357.583 808.908 352.25C819.242 346.75 830.908 344 843.908 344C858.242 344 869.742 346.917 878.408 352.75C887.242 358.417 893.658 366.167 897.658 376C901.658 385.833 903.658 396.833 903.658 409C903.658 416.333 902.492 423.833 900.158 431.5C897.825 439 894.242 446 889.408 452.5C884.575 458.833 878.242 464 870.408 468C862.575 471.833 853.158 473.75 842.158 473.75ZM852.658 448.75C862.492 448.75 870.992 447.083 878.158 443.75C885.325 440.417 890.825 435.75 894.658 429.75C898.492 423.75 900.408 416.833 900.408 409C900.408 400.5 898.408 393.333 894.408 387.5C890.575 381.5 885.075 377 877.908 374C870.908 370.833 862.492 369.25 852.658 369.25C838.825 369.25 828.075 372.917 820.408 380.25C812.742 387.417 808.908 397 808.908 409C808.908 417 810.742 424 814.408 430C818.075 435.833 823.158 440.417 829.658 443.75C836.325 447.083 843.992 448.75 852.658 448.75ZM900.408 346.75H932.908V471H902.658C902.658 471 902.408 469.417 901.908 466.25C901.575 462.917 901.242 458.75 900.908 453.75C900.575 448.75 900.408 443.833 900.408 439V346.75ZM957.322 429.75H987.322C989.156 435.417 992.906 440.083 998.572 443.75C1004.41 447.25 1011.99 449 1021.32 449C1027.66 449 1032.57 448.417 1036.07 447.25C1039.57 446.083 1041.99 444.417 1043.32 442.25C1044.66 439.917 1045.32 437.333 1045.32 434.5C1045.32 431 1044.24 428.333 1042.07 426.5C1039.91 424.5 1036.57 422.917 1032.07 421.75C1027.57 420.583 1021.82 419.5 1014.82 418.5C1007.82 417.333 1001.07 415.917 994.572 414.25C988.072 412.583 982.322 410.417 977.322 407.75C972.322 404.917 968.322 401.417 965.322 397.25C962.489 392.917 961.072 387.667 961.072 381.5C961.072 375.5 962.489 370.167 965.322 365.5C968.322 360.833 972.406 356.917 977.572 353.75C982.906 350.583 989.072 348.167 996.072 346.5C1003.24 344.833 1010.91 344 1019.07 344C1031.41 344 1041.66 345.833 1049.82 349.5C1057.99 353 1064.07 358 1068.07 364.5C1072.24 370.833 1074.32 378.167 1074.32 386.5H1045.57C1044.24 380.333 1041.57 375.917 1037.57 373.25C1033.57 370.417 1027.41 369 1019.07 369C1010.91 369 1004.74 370.25 1000.57 372.75C996.406 375.25 994.322 378.667 994.322 383C994.322 386.5 995.572 389.25 998.072 391.25C1000.74 393.083 1004.57 394.583 1009.57 395.75C1014.74 396.917 1021.16 398.167 1028.82 399.5C1035.32 400.833 1041.49 402.333 1047.32 404C1053.32 405.667 1058.66 407.833 1063.32 410.5C1067.99 413 1071.66 416.417 1074.32 420.75C1077.16 424.917 1078.57 430.25 1078.57 436.75C1078.57 444.75 1076.24 451.5 1071.57 457C1067.07 462.5 1060.57 466.75 1052.07 469.75C1043.57 472.583 1033.41 474 1021.57 474C1011.07 474 1001.99 472.917 994.322 470.75C986.822 468.417 980.572 465.5 975.572 462C970.572 458.333 966.656 454.5 963.822 450.5C961.156 446.333 959.322 442.417 958.322 438.75C957.322 435.083 956.989 432.083 957.322 429.75ZM1098.44 429.75H1128.44C1130.27 435.417 1134.02 440.083 1139.69 443.75C1145.52 447.25 1153.1 449 1162.44 449C1168.77 449 1173.69 448.417 1177.19 447.25C1180.69 446.083 1183.1 444.417 1184.44 442.25C1185.77 439.917 1186.44 437.333 1186.44 434.5C1186.44 431 1185.35 428.333 1183.19 426.5C1181.02 424.5 1177.69 422.917 1173.19 421.75C1168.69 420.583 1162.94 419.5 1155.94 418.5C1148.94 417.333 1142.19 415.917 1135.69 414.25C1129.19 412.583 1123.44 410.417 1118.44 407.75C1113.44 404.917 1109.44 401.417 1106.44 397.25C1103.6 392.917 1102.19 387.667 1102.19 381.5C1102.19 375.5 1103.6 370.167 1106.44 365.5C1109.44 360.833 1113.52 356.917 1118.69 353.75C1124.02 350.583 1130.19 348.167 1137.19 346.5C1144.35 344.833 1152.02 344 1160.19 344C1172.52 344 1182.77 345.833 1190.94 349.5C1199.1 353 1205.19 358 1209.19 364.5C1213.35 370.833 1215.44 378.167 1215.44 386.5H1186.69C1185.35 380.333 1182.69 375.917 1178.69 373.25C1174.69 370.417 1168.52 369 1160.19 369C1152.02 369 1145.85 370.25 1141.69 372.75C1137.52 375.25 1135.44 378.667 1135.44 383C1135.44 386.5 1136.69 389.25 1139.19 391.25C1141.85 393.083 1145.69 394.583 1150.69 395.75C1155.85 396.917 1162.27 398.167 1169.94 399.5C1176.44 400.833 1182.6 402.333 1188.44 404C1194.44 405.667 1199.77 407.833 1204.44 410.5C1209.1 413 1212.77 416.417 1215.44 420.75C1218.27 424.917 1219.69 430.25 1219.69 436.75C1219.69 444.75 1217.35 451.5 1212.69 457C1208.19 462.5 1201.69 466.75 1193.19 469.75C1184.69 472.583 1174.52 474 1162.69 474C1152.19 474 1143.1 472.917 1135.44 470.75C1127.94 468.417 1121.69 465.5 1116.69 462C1111.69 458.333 1107.77 454.5 1104.94 450.5C1102.27 446.333 1100.44 442.417 1099.44 438.75C1098.44 435.083 1098.1 432.083 1098.44 429.75ZM1305.05 473.75C1292.72 473.75 1281.47 471.083 1271.3 465.75C1261.3 460.25 1253.3 452.667 1247.3 443C1241.47 433.167 1238.55 421.833 1238.55 409C1238.55 395.833 1241.55 384.417 1247.55 374.75C1253.55 365.083 1261.63 357.583 1271.8 352.25C1282.13 346.75 1293.8 344 1306.8 344C1321.13 344 1332.63 346.917 1341.3 352.75C1350.13 358.417 1356.55 366.167 1360.55 376C1364.55 385.833 1366.55 396.833 1366.55 409C1366.55 416.333 1365.38 423.833 1363.05 431.5C1360.72 439 1357.13 446 1352.3 452.5C1347.47 458.833 1341.13 464 1333.3 468C1325.47 471.833 1316.05 473.75 1305.05 473.75ZM1315.55 448.75C1325.38 448.75 1333.88 447.083 1341.05 443.75C1348.22 440.417 1353.72 435.75 1357.55 429.75C1361.38 423.75 1363.3 416.833 1363.3 409C1363.3 400.5 1361.3 393.333 1357.3 387.5C1353.47 381.5 1347.97 377 1340.8 374C1333.8 370.833 1325.38 369.25 1315.55 369.25C1301.72 369.25 1290.97 372.917 1283.3 380.25C1275.63 387.417 1271.8 397 1271.8 409C1271.8 417 1273.63 424 1277.3 430C1280.97 435.833 1286.05 440.417 1292.55 443.75C1299.22 447.083 1306.88 448.75 1315.55 448.75ZM1363.3 346.75H1395.8V471H1365.55C1365.55 471 1365.3 469.417 1364.8 466.25C1364.47 462.917 1364.13 458.75 1363.8 453.75C1363.47 448.75 1363.3 443.833 1363.3 439V346.75ZM1487.21 452C1473.71 452 1461.8 450 1451.46 446C1441.3 441.833 1433.38 435.75 1427.71 427.75C1422.05 419.75 1419.21 410.083 1419.21 398.75C1419.21 387.583 1421.96 377.917 1427.46 369.75C1432.96 361.583 1440.8 355.25 1450.96 350.75C1461.3 346.25 1473.38 344 1487.21 344C1491.05 344 1494.71 344.25 1498.21 344.75C1501.88 345.25 1505.46 345.917 1508.96 346.75L1571.71 347V371.5C1563.21 371.667 1554.55 370.667 1545.71 368.5C1537.05 366.167 1529.38 363.667 1522.71 361L1521.96 359.25C1527.63 361.917 1532.96 365.25 1537.96 369.25C1542.96 373.083 1546.96 377.583 1549.96 382.75C1553.13 387.75 1554.71 393.583 1554.71 400.25C1554.71 411.083 1551.96 420.417 1546.46 428.25C1540.96 435.917 1533.13 441.833 1522.96 446C1512.96 450 1501.05 452 1487.21 452ZM1528.96 522.25V516.25C1528.96 508.583 1526.46 503.25 1521.46 500.25C1516.63 497.25 1509.96 495.75 1501.46 495.75H1462.71C1455.21 495.75 1448.88 495.167 1443.71 494C1438.71 492.833 1434.71 491.167 1431.71 489C1428.71 486.833 1426.55 484.25 1425.21 481.25C1423.88 478.417 1423.21 475.333 1423.21 472C1423.21 465.333 1425.38 460.333 1429.71 457C1434.05 453.5 1439.88 451.167 1447.21 450C1454.55 448.833 1462.63 448.583 1471.46 449.25L1487.21 452C1476.71 452.333 1468.88 453.25 1463.71 454.75C1458.71 456.083 1456.21 458.833 1456.21 463C1456.21 465.5 1457.21 467.5 1459.21 469C1461.21 470.333 1464.05 471 1467.71 471H1508.46C1519.63 471 1529.13 472.167 1536.96 474.5C1544.96 477 1551.05 481.083 1555.21 486.75C1559.38 492.583 1561.46 500.5 1561.46 510.5V522.25H1528.96ZM1487.21 428.5C1494.38 428.5 1500.63 427.333 1505.96 425C1511.46 422.667 1515.71 419.333 1518.71 415C1521.71 410.5 1523.21 405.167 1523.21 399C1523.21 392.667 1521.71 387.25 1518.71 382.75C1515.71 378.25 1511.55 374.833 1506.21 372.5C1500.88 370 1494.55 368.75 1487.21 368.75C1480.05 368.75 1473.71 370 1468.21 372.5C1462.71 374.833 1458.46 378.25 1455.46 382.75C1452.46 387.25 1450.96 392.667 1450.96 399C1450.96 405.167 1452.46 410.5 1455.46 415C1458.46 419.333 1462.63 422.667 1467.96 425C1473.46 427.333 1479.88 428.5 1487.21 428.5ZM1703.99 429.75H1735.49C1734.16 438.25 1730.57 445.833 1724.74 452.5C1719.07 459.167 1711.32 464.417 1701.49 468.25C1691.66 472.083 1679.66 474 1665.49 474C1649.66 474 1635.66 471.5 1623.49 466.5C1611.32 461.333 1601.82 453.917 1594.99 444.25C1588.16 434.583 1584.74 422.917 1584.74 409.25C1584.74 395.583 1588.07 383.917 1594.74 374.25C1601.41 364.417 1610.66 356.917 1622.49 351.75C1634.49 346.583 1648.49 344 1664.49 344C1680.82 344 1694.41 346.583 1705.24 351.75C1716.07 356.917 1724.07 364.75 1729.24 375.25C1734.57 385.583 1736.82 398.833 1735.99 415H1617.49C1618.32 421.333 1620.66 427.083 1624.49 432.25C1628.49 437.417 1633.82 441.5 1640.49 444.5C1647.32 447.5 1655.41 449 1664.74 449C1675.07 449 1683.66 447.25 1690.49 443.75C1697.49 440.083 1701.99 435.417 1703.99 429.75ZM1662.99 368.75C1650.99 368.75 1641.24 371.417 1633.74 376.75C1626.24 381.917 1621.41 388.333 1619.24 396H1703.74C1702.91 387.667 1698.91 381.083 1691.74 376.25C1684.74 371.25 1675.16 368.75 1662.99 368.75Z" fill="#ffffff"/>
<defs fill="#ffffff">
<linearGradient id="paint0_linear_190_179" x1="99.5657" y1="472.609" x2="241.252" y2="284.499" gradientUnits="userSpaceOnUse" fill="#ffffff">
<stop offset="1" stop-color="#dfbd69" fill="#ffffff"/>
</linearGradient>
<linearGradient id="paint1_linear_190_179" x1="104.234" y1="479.885" x2="266.412" y2="288.236" gradientUnits="userSpaceOnUse" fill="#ffffff">
<stop offset="1" stop-color="#dfbd69" fill="#ffffff"/>
</linearGradient>
<linearGradient id="paint2_linear_190_179" x1="71.7269" y1="452.355" x2="221.438" y2="256.966" gradientUnits="userSpaceOnUse" fill="#ffffff">
<stop offset="1" stop-color="#dfbd69" fill="#ffffff"/>
</linearGradient>
<linearGradient id="paint3_linear_190_179" x1="62.37" y1="445.604" x2="215.316" y2="246.937" gradientUnits="userSpaceOnUse" fill="#ffffff">
<stop offset="1" stop-color="#dfbd69" fill="#ffffff"/>
</linearGradient>
<linearGradient id="paint4_linear_190_179" x1="81.1968" y1="460.568" x2="232.032" y2="267.584" gradientUnits="userSpaceOnUse" fill="#ffffff">
<stop offset="1" stop-color="#dfbd69" fill="#ffffff"/>
</linearGradient>
<linearGradient id="paint5_linear_190_179" x1="89.3521" y1="466.156" x2="239.794" y2="280.307" gradientUnits="userSpaceOnUse" fill="#ffffff">
<stop offset="1" stop-color="#dfbd69" fill="#ffffff"/>
</linearGradient>
<linearGradient id="paint6_linear_190_179" x1="94.1703" y1="469.897" x2="235.411" y2="276.179" gradientUnits="userSpaceOnUse" fill="#ffffff">
<stop offset="1" stop-color="#dfbd69" fill="#ffffff"/>
</linearGradient>
<linearGradient id="paint7_linear_190_179" x1="85.7191" y1="463.109" x2="236.871" y2="273.329" gradientUnits="userSpaceOnUse" fill="#ffffff">
<stop offset="1" stop-color="#dfbd69" fill="#ffffff"/>
</linearGradient>
<linearGradient id="paint8_linear_190_179" x1="91.1398" y1="470.375" x2="249.708" y2="272.326" gradientUnits="userSpaceOnUse" fill="#ffffff">
<stop offset="1" stop-color="#dfbd69" fill="#ffffff"/>
</linearGradient>
<linearGradient id="paint9_linear_190_179" x1="82.9062" y1="464.469" x2="245.151" y2="267.669" gradientUnits="userSpaceOnUse" fill="#ffffff">
<stop offset="1" stop-color="#dfbd69" fill="#ffffff"/>
</linearGradient>
<linearGradient id="paint10_linear_190_179" x1="75.9282" y1="456.665" x2="231.502" y2="264.421" gradientUnits="userSpaceOnUse" fill="#ffffff">
<stop offset="1" stop-color="#dfbd69" fill="#ffffff"/>
</linearGradient>
<linearGradient id="paint11_linear_190_179" x1="69.5408" y1="448.537" x2="215.398" y2="264.31" gradientUnits="userSpaceOnUse" fill="#ffffff">
<stop offset="1" stop-color="#dfbd69" fill="#ffffff"/>
</linearGradient>
<linearGradient id="paint12_linear_190_179" x1="61.0419" y1="443.283" x2="209.392" y2="251.553" gradientUnits="userSpaceOnUse" fill="#ffffff">
<stop offset="1" stop-color="#dfbd69" fill="#ffffff"/>
</linearGradient>
<linearGradient id="paint13_linear_190_179" x1="83.8413" y1="462.447" x2="235.752" y2="271.453" gradientUnits="userSpaceOnUse" fill="#ffffff">
<stop offset="1" stop-color="#dfbd69" fill="#ffffff"/>
</linearGradient>
<linearGradient id="paint14_linear_190_179" x1="92.137" y1="468.724" x2="246.322" y2="279.181" gradientUnits="userSpaceOnUse" fill="#ffffff">
<stop offset="1" stop-color="#dfbd69" fill="#ffffff"/>
</linearGradient>
<linearGradient id="paint15_linear_190_179" x1="108.588" y1="482.057" x2="264.33" y2="293.588" gradientUnits="userSpaceOnUse" fill="#ffffff">
<stop offset="1" stop-color="#dfbd69" fill="#ffffff"/>
</linearGradient>
<linearGradient id="paint16_linear_190_179" x1="139.443" y1="506.425" x2="290.927" y2="316.308" gradientUnits="userSpaceOnUse" fill="#ffffff">
<stop offset="1" stop-color="#dfbd69" fill="#ffffff"/>
</linearGradient>
<linearGradient id="paint17_linear_190_179" x1="85.1549" y1="462.539" x2="234.662" y2="267.684" gradientUnits="userSpaceOnUse" fill="#ffffff">
<stop offset="1" stop-color="#dfbd69" fill="#ffffff"/>
</linearGradient>
<linearGradient id="paint18_linear_190_179" x1="303.634" y1="299.373" x2="402.883" y2="200.406" gradientUnits="userSpaceOnUse" fill="#ffffff">
<stop offset="1" stop-color="#dfbd69" fill="#ffffff"/>
</linearGradient>
<linearGradient id="paint19_linear_190_179" x1="188.803" y1="174.094" x2="273.646" y2="89.4025" gradientUnits="userSpaceOnUse" fill="#ffffff">
<stop offset="1" stop-color="#dfbd69" fill="#ffffff"/>
</linearGradient>
<linearGradient id="paint20_linear_190_179" x1="195.863" y1="225.836" x2="128.493" y2="158.147" gradientUnits="userSpaceOnUse" fill="#ffffff">
<stop offset="1" stop-color="#dfbd69" fill="#ffffff"/>
</linearGradient>
<linearGradient id="paint21_linear_190_179" x1="174.15" y1="305.447" x2="54.5753" y2="185.785" gradientUnits="userSpaceOnUse" fill="#ffffff">
<stop offset="1" stop-color="#dfbd69" fill="#ffffff"/>
</linearGradient>
<linearGradient id="paint22_linear_190_179" x1="262.585" y1="237.879" x2="335.467" y2="165.523" gradientUnits="userSpaceOnUse" fill="#ffffff">
<stop offset="1" stop-color="#dfbd69" fill="#ffffff"/>
</linearGradient>
<linearGradient id="paint23_linear_190_179" x1="172.286" y1="305.497" x2="273.102" y2="204.888" gradientUnits="userSpaceOnUse" fill="#ffffff">
<stop offset="1" stop-color="#dfbd69" fill="#ffffff"/>
</linearGradient>
<linearGradient id="paint24_linear_190_179" x1="217.512" y1="36.2448" x2="240.17" y2="13.7097" gradientUnits="userSpaceOnUse" fill="#ffffff">
<stop offset="1" stop-color="#dfbd69" fill="#ffffff"/>
</linearGradient>
</defs>
</svg>